<?xml version="1.0" encoding="UTF-8"?>
<svg xmlns="http://www.w3.org/2000/svg" width="800.000" height="600.000" viewBox="0.0 0.0 800.000 600.000" version="1.1">
  <title>Produce by Acme CAD Converter</title>
  <desc>Produce by Acme CAD Converter</desc>
<path d="M598.04 1.96L598.04 1.96M598.04 1.96L598.05 1.97M598.05 1.97L598.05 1.97M598.05 1.97L598.08 1.92M598.08 1.92L598.08 1.92M598.08 1.92L598.07 1.91M598.07 1.91L598.07 1.92M598.07 1.92L598.04 1.96"
fill="none" stroke="fuchsia" stroke-width="0.5"/>
<path d="M598.06 1.92L598.07 1.93"
fill="none" stroke="blue" stroke-width="0.5"/>
<path d="M598.09 1.91L598.08 1.9"
fill="none" stroke="blue" stroke-width="0.5"/>
<path d="M598.08 1.91L598.07 1.91"
fill="none" stroke="blue" stroke-width="0.5"/>
<path d="M598.09 1.91L598.08 1.9"
fill="none" stroke="blue" stroke-width="0.5"/>
<path d="M598.09 1.91L598.08 1.9"
fill="none" stroke="blue" stroke-width="0.5"/>
<path d="M598.09 1.91L598.08 1.9"
fill="none" stroke="blue" stroke-width="0.5"/>
<path d="M598.09 1.9L598.08 1.9"
fill="none" stroke="blue" stroke-width="0.5"/>
<path d="M598.09 1.9L598.08 1.9"
fill="none" stroke="blue" stroke-width="0.5"/>
<path d="M598.09 1.9L598.08 1.9"
fill="none" stroke="blue" stroke-width="0.5"/>
<path d="M598.09 1.9L598.08 1.89"
fill="none" stroke="blue" stroke-width="0.5"/>
<path d="M598.09 1.9L598.08 1.89"
fill="none" stroke="blue" stroke-width="0.5"/>
<path d="M598.09 1.9L598.08 1.89"
fill="none" stroke="blue" stroke-width="0.5"/>
<path d="M598.09 1.9L598.09 1.89"
fill="none" stroke="blue" stroke-width="0.5"/>
<path d="M598.1 1.89L598.09 1.89"
fill="none" stroke="blue" stroke-width="0.5"/>
<path d="M598.1 1.89L598.09 1.89"
fill="none" stroke="blue" stroke-width="0.5"/>
<path d="M598.1 1.89L598.09 1.88"
fill="none" stroke="blue" stroke-width="0.5"/>
<path d="M598.1 1.89L598.09 1.88"
fill="none" stroke="blue" stroke-width="0.5"/>
<path d="M598.1 1.89L598.09 1.88"
fill="none" stroke="blue" stroke-width="0.5"/>
<path d="M598.09 2.01L597.96 1.91"
fill="none" stroke="fuchsia" stroke-width="0.5"/>
<path d="M597.96 1.91L597.96 1.91"
fill="none" stroke="fuchsia" stroke-width="0.5"/>
<path d="M597.96 1.91L597.96 1.91"
fill="none" stroke="fuchsia" stroke-width="0.5"/>
<path d="M597.96 1.91L597.95 1.91"
fill="none" stroke="fuchsia" stroke-width="0.5"/>
<path d="M597.95 1.91L597.95 1.91"
fill="none" stroke="fuchsia" stroke-width="0.5"/>
<path d="M201.79 575.63L201.79 575.63"
fill="none" stroke="fuchsia" stroke-width="0.5"/>
<path d="M597.95 1.91L597.95 1.91"
fill="none" stroke="fuchsia" stroke-width="0.5"/>
<path d="M597.95 1.91L597.95 1.91"
fill="none" stroke="fuchsia" stroke-width="0.5"/>
<path d="M597.95 1.91L597.95 1.91"
fill="none" stroke="fuchsia" stroke-width="0.5"/>
<path d="M597.95 1.91L597.95 1.91"
fill="none" stroke="fuchsia" stroke-width="0.5"/>
<path d="M202.41 576.58L202.41 576.58"
fill="none" stroke="fuchsia" stroke-width="0.5"/>
<path d="M202.58 576.84L202.58 576.84"
fill="none" stroke="fuchsia" stroke-width="0.5"/>
<path d="M597.95 1.91L597.95 1.91"
fill="none" stroke="fuchsia" stroke-width="0.5"/>
<path d="M597.95 1.91L597.95 1.91"
fill="none" stroke="fuchsia" stroke-width="0.5"/>
<path d="M597.95 1.91L597.95 1.91"
fill="none" stroke="fuchsia" stroke-width="0.5"/>
<path d="M597.95 1.91L597.95 1.91"
fill="none" stroke="fuchsia" stroke-width="0.5"/>
<path d="M203.68 578.51L203.68 578.5"
fill="none" stroke="fuchsia" stroke-width="0.5"/>
<path d="M597.95 1.91L597.95 1.91"
fill="none" stroke="fuchsia" stroke-width="0.5"/>
<path d="M204.23 579.33L204.23 579.33"
fill="none" stroke="fuchsia" stroke-width="0.5"/>
<path d="M204.53 579.78L204.53 579.78"
fill="none" stroke="fuchsia" stroke-width="0.5"/>
<path d="M204.85 580.26L204.85 580.26"
fill="none" stroke="fuchsia" stroke-width="0.5"/>
<path d="M597.95 1.91L597.95 1.91"
fill="none" stroke="fuchsia" stroke-width="0.5"/>
<path d="M597.95 1.91L597.95 1.91"
fill="none" stroke="fuchsia" stroke-width="0.5"/>
<path d="M597.95 1.91L597.95 1.91"
fill="none" stroke="fuchsia" stroke-width="0.5"/>
<path d="M597.95 1.91L597.95 1.91"
fill="none" stroke="fuchsia" stroke-width="0.5"/>
<path d="M597.95 1.91L597.95 1.91"
fill="none" stroke="fuchsia" stroke-width="0.5"/>
<path d="M597.95 1.91L597.95 1.91"
fill="none" stroke="fuchsia" stroke-width="0.5"/>
<path d="M207.54 584.21L207.54 584.21"
fill="none" stroke="fuchsia" stroke-width="0.5"/>
<path d="M597.94 1.91L597.94 1.91"
fill="none" stroke="fuchsia" stroke-width="0.5"/>
<path d="M208.46 585.54L208.46 585.54"
fill="none" stroke="fuchsia" stroke-width="0.5"/>
<path d="M208.95 586.24L208.95 586.24"
fill="none" stroke="fuchsia" stroke-width="0.5"/>
<path d="M209.46 586.96L209.46 586.96"
fill="none" stroke="fuchsia" stroke-width="0.5"/>
<path d="M597.94 1.9L597.94 1.9"
fill="none" stroke="fuchsia" stroke-width="0.5"/>
<path d="M210.53 588.47L210.53 588.47"
fill="none" stroke="fuchsia" stroke-width="0.5"/>
<path d="M597.94 1.9L597.94 1.9"
fill="none" stroke="fuchsia" stroke-width="0.5"/>
<path d="M597.94 1.9L597.94 1.9"
fill="none" stroke="fuchsia" stroke-width="0.5"/>
<path d="M597.94 1.9L597.94 1.9"
fill="none" stroke="fuchsia" stroke-width="0.5"/>
<path d="M597.94 1.9L597.94 1.9"
fill="none" stroke="fuchsia" stroke-width="0.5"/>
<path d="M213.53 592.62L213.52 592.62"
fill="none" stroke="fuchsia" stroke-width="0.5"/>
<path d="M597.94 1.9L597.94 1.9"
fill="none" stroke="fuchsia" stroke-width="0.5"/>
<path d="M597.94 1.9L597.94 1.9"
fill="none" stroke="fuchsia" stroke-width="0.5"/>
<path d="M597.94 1.9L597.94 1.9"
fill="none" stroke="fuchsia" stroke-width="0.5"/>
<path d="M597.94 1.9L597.94 1.9"
fill="none" stroke="fuchsia" stroke-width="0.5"/>
<path d="M597.94 1.9L597.94 1.9"
fill="none" stroke="fuchsia" stroke-width="0.5"/>
<path d="M217.76 598.3L217.76 598.3"
fill="none" stroke="fuchsia" stroke-width="0.5"/>
<path d="M597.94 1.9L597.94 1.9"
fill="none" stroke="fuchsia" stroke-width="0.5"/>
<path d="M597.94 1.9L597.94 1.9"
fill="none" stroke="fuchsia" stroke-width="0.5"/>
<path d="M597.94 1.9L597.94 1.9"
fill="none" stroke="fuchsia" stroke-width="0.5"/>
<path d="M597.94 1.9L597.94 1.9"
fill="none" stroke="fuchsia" stroke-width="0.5"/>
<path d="M597.94 1.9L597.94 1.9"
fill="none" stroke="fuchsia" stroke-width="0.5"/>
<path d="M597.94 1.9L597.8 1.86"
fill="none" stroke="fuchsia" stroke-width="0.5"/>
<path d="M598.05 1.97L598.05 1.97"
fill="none" stroke="black" stroke-width="0.5"/>
<path d="M598.04 1.96L598.04 1.96 598.04 1.96 598.04 1.96 598.04 1.96Z"
fill-rule="nonzero" fill="black"/>
<path d="M598.04 1.96L598.04 1.96 598.04 1.96 598.04 1.96 598.04 1.96Z"
fill-rule="nonzero" fill="black"/>
<path d="M597.91 1.88L597.92 1.88"
fill="none" stroke="black" stroke-width="0.5"/>
<path d="M597.91 1.87L597.91 1.88"
fill="none" stroke="black" stroke-width="0.5"/>
<path d="M597.91 1.88L597.91 1.88M597.91 1.88L597.91 1.88M597.91 1.88L597.91 1.88M597.91 1.88L597.91 1.88M597.91 1.88L597.91 1.88M597.91 1.88L597.91 1.88M597.91 1.88L597.91 1.88M597.91 1.88L597.91 1.88M597.91 1.88L597.91 1.88M597.91 1.88L597.91 1.88"
fill="none" stroke="black" stroke-width="0.5"/>
<path d="M598.05 1.97L598.04 1.96M598.04 1.96L598.04 1.96M598.04 1.96L598.04 1.96M598.04 1.96L598.04 1.96"
fill="none" stroke="black" stroke-width="0.5"/>
<path d="M598.06 1.98L598.05 1.97"
fill="none" stroke="black" stroke-width="0.5"/>
<path d="M598.11 1.79L598.15 1.82M598.15 1.82L598.21 1.85M598.21 1.85L598.21 1.85"
fill="none" stroke="fuchsia" stroke-width="0.5"/>
<path d="M598.01 1.71L598.01 1.72"
fill="none" stroke="fuchsia" stroke-width="0.5"/>
<path d="M598.01 1.72L597.99 1.75M597.99 1.75L597.97 1.78M597.97 1.78L597.94 1.82M597.94 1.82L597.9 1.88"
fill="none" stroke="fuchsia" stroke-width="0.5"/>
<path d="M597.92 1.81L597.94 1.82M597.94 1.82L597.94 1.82"
fill="none" stroke="fuchsia" stroke-width="0.5"/>
<path d="M597.98 1.7L598.01 1.72M598.01 1.72L598.06 1.75M598.06 1.75L598.11 1.79M598.11 1.79L598.15 1.82M598.15 1.82L598.21 1.85"
fill="none" stroke="fuchsia" stroke-width="0.5"/>
<path d="M598.06 1.75L598.07 1.73"
fill="none" stroke="fuchsia" stroke-width="0.5"/>
<path d="M598.12 1.77L598.11 1.79"
fill="none" stroke="fuchsia" stroke-width="0.5"/>
<path d="M598.11 1.79L598.06 1.85"
fill="none" stroke="fuchsia" stroke-width="0.5"/>
<path d="M598.06 1.85L598 1.94"
fill="none" stroke="fuchsia" stroke-width="0.5"/>
<path d="M597.99 1.75L597.97 1.74"
fill="none" stroke="fuchsia" stroke-width="0.5"/>
<path d="M598.09 1.82L598.13 1.85"
fill="none" stroke="fuchsia" stroke-width="0.5"/>
<path d="M598.13 1.85L598.19 1.89"
fill="none" stroke="fuchsia" stroke-width="0.5"/>
<path d="M598.17 1.83L598.15 1.86"
fill="none" stroke="fuchsia" stroke-width="0.5"/>
<path d="M598.18 1.88L598.17 1.91"
fill="none" stroke="fuchsia" stroke-width="0.5"/>
<path d="M598.17 1.91L598.16 1.92"
fill="none" stroke="fuchsia" stroke-width="0.5"/>
<path d="M598.04 1.89L598.08 1.92"
fill="none" stroke="fuchsia" stroke-width="0.5"/>
<path d="M598.09 1.87L598.03 1.96"
fill="none" stroke="fuchsia" stroke-width="0.5"/>
<path d="M597.98 1.79L597.91 1.89"
fill="none" stroke="fuchsia" stroke-width="0.5"/>
<path d="M597.95 1.77L597.97 1.78"
fill="none" stroke="fuchsia" stroke-width="0.5"/>
<path d="M598.11 1.88L598.17 1.91"
fill="none" stroke="fuchsia" stroke-width="0.5"/>
<path d="M598.17 1.91L598.17 1.92"
fill="none" stroke="fuchsia" stroke-width="0.5"/>
<path d="M598.01 1.82L597.95 1.91"
fill="none" stroke="fuchsia" stroke-width="0.5"/>
<path d="M598.06 1.75L598.01 1.82"
fill="none" stroke="fuchsia" stroke-width="0.5"/>
<path d="M597.96 1.78L598.11 1.88"
fill="none" stroke="fuchsia" stroke-width="0.5"/>
<path d="M597.99 1.86L597.95 1.83"
fill="none" stroke="fuchsia" stroke-width="0.5"/>
<path d="M598.01 1.71L598.01 1.71"
fill="none" stroke="black" stroke-width="0.5"/>
<path d="M598 1.71L598.01 1.71"
fill="none" stroke="black" stroke-width="0.5"/>
<path d="M598 1.71L597.98 1.7"
fill="none" stroke="black" stroke-width="0.5"/>
<path d="M598.01 1.71L598.01 1.71"
fill="none" stroke="black" stroke-width="0.5"/>
<path d="M598.01 1.71L598.01 1.72"
fill="none" stroke="black" stroke-width="0.5"/>
<path d="M598.01 1.72L598.05 1.75"
fill="none" stroke="black" stroke-width="0.5"/>
<path d="M598.05 1.75L598.06 1.74"
fill="none" stroke="black" stroke-width="0.5"/>
<path d="M598.06 1.74L598.07 1.73"
fill="none" stroke="black" stroke-width="0.5"/>
<path d="M597.98 1.7L598 1.72"
fill="none" stroke="black" stroke-width="0.5"/>
<path d="M598 1.73L598 1.72"
fill="none" stroke="black" stroke-width="0.5"/>
<path d="M598 1.73L597.99 1.74"
fill="none" stroke="black" stroke-width="0.5"/>
<path d="M597.98 1.74L597.99 1.74"
fill="none" stroke="black" stroke-width="0.5"/>
<path d="M597.98 1.74L597.97 1.74"
fill="none" stroke="black" stroke-width="0.5"/>
<path d="M598.09 1.82L598.1 1.79"
fill="none" stroke="black" stroke-width="0.5"/>
<path d="M598.11 1.79L598.1 1.79"
fill="none" stroke="black" stroke-width="0.5"/>
<path d="M598.11 1.79L598.14 1.82"
fill="none" stroke="black" stroke-width="0.5"/>
<path d="M598.15 1.82L598.14 1.82"
fill="none" stroke="black" stroke-width="0.5"/>
<path d="M598.15 1.82L598.13 1.84"
fill="none" stroke="black" stroke-width="0.5"/>
<path d="M598.13 1.84L598.13 1.84"
fill="none" stroke="black" stroke-width="0.5"/>
<path d="M598.13 1.84L598.09 1.82"
fill="none" stroke="black" stroke-width="0.5"/>
<path d="M598.09 1.82L598.09 1.82"
fill="none" stroke="black" stroke-width="0.5"/>
<path d="M598.17 1.84L598.15 1.86"
fill="none" stroke="black" stroke-width="0.5"/>
<path d="M598.15 1.86L598.15 1.86"
fill="none" stroke="black" stroke-width="0.5"/>
<path d="M598.15 1.86L598.14 1.85"
fill="none" stroke="black" stroke-width="0.5"/>
<path d="M598.13 1.85L598.14 1.85"
fill="none" stroke="black" stroke-width="0.5"/>
<path d="M598.13 1.85L598.15 1.82"
fill="none" stroke="black" stroke-width="0.5"/>
<path d="M598.16 1.82L598.15 1.82"
fill="none" stroke="black" stroke-width="0.5"/>
<path d="M598.16 1.82L598.17 1.83"
fill="none" stroke="black" stroke-width="0.5"/>
<path d="M598.17 1.84L598.17 1.83"
fill="none" stroke="black" stroke-width="0.5"/>
<path d="M598.19 1.89L598.16 1.86"
fill="none" stroke="black" stroke-width="0.5"/>
<path d="M598.15 1.86L598.16 1.86"
fill="none" stroke="black" stroke-width="0.5"/>
<path d="M598.15 1.86L598.17 1.84"
fill="none" stroke="black" stroke-width="0.5"/>
<path d="M598.17 1.84L598.17 1.84"
fill="none" stroke="black" stroke-width="0.5"/>
<path d="M598.17 1.84L598.2 1.86"
fill="none" stroke="black" stroke-width="0.5"/>
<path d="M598.12 1.77L598.11 1.78"
fill="none" stroke="black" stroke-width="0.5"/>
<path d="M598.11 1.78L598.11 1.79"
fill="none" stroke="black" stroke-width="0.5"/>
<path d="M598.11 1.79L598.15 1.81M598.15 1.81L598.21 1.85"
fill="none" stroke="black" stroke-width="0.5"/>
<path d="M598.12 1.77L598.11 1.78"
fill="none" stroke="black" stroke-width="0.5"/>
<path d="M598.1 1.78L598.11 1.78"
fill="none" stroke="black" stroke-width="0.5"/>
<path d="M598.1 1.78L598.06 1.75"
fill="none" stroke="black" stroke-width="0.5"/>
<path d="M598.06 1.75L598.06 1.75"
fill="none" stroke="black" stroke-width="0.5"/>
<path d="M598.06 1.75L598.07 1.74"
fill="none" stroke="black" stroke-width="0.5"/>
<path d="M597.93 1.82L597.92 1.81"
fill="none" stroke="black" stroke-width="0.5"/>
<path d="M597.93 1.82L597.93 1.82"
fill="none" stroke="black" stroke-width="0.5"/>
<path d="M598.04 1.89L598.04 1.89"
fill="none" stroke="black" stroke-width="0.5"/>
<path d="M598.04 1.89L598.06 1.91"
fill="none" stroke="black" stroke-width="0.5"/>
<path d="M598.06 1.91L598.06 1.91"
fill="none" stroke="black" stroke-width="0.5"/>
<path d="M598.04 1.96L598.07 1.91"
fill="none" stroke="black" stroke-width="0.5"/>
<path d="M598.07 1.91L598.07 1.91"
fill="none" stroke="black" stroke-width="0.5"/>
<path d="M598.07 1.91L598.08 1.92"
fill="none" stroke="black" stroke-width="0.5"/>
<path d="M598.08 1.92L598.08 1.92"
fill="none" stroke="black" stroke-width="0.5"/>
<path d="M598.08 1.92L598.05 1.97"
fill="none" stroke="black" stroke-width="0.5"/>
<path d="M597.95 1.77L597.96 1.78"
fill="none" stroke="black" stroke-width="0.5"/>
<path d="M597.96 1.78L597.96 1.78"
fill="none" stroke="black" stroke-width="0.5"/>
<path d="M597.96 1.78L597.94 1.81"
fill="none" stroke="black" stroke-width="0.5"/>
<path d="M597.93 1.82L597.94 1.81"
fill="none" stroke="black" stroke-width="0.5"/>
<path d="M597.93 1.82L597.92 1.81"
fill="none" stroke="black" stroke-width="0.5"/>
<path d="M597.91 1.87L597.94 1.82"
fill="none" stroke="black" stroke-width="0.5"/>
<path d="M598.07 1.91L598.07 1.9"
fill="none" stroke="black" stroke-width="0.5"/>
<path d="M598.07 1.91L598.04 1.89"
fill="none" stroke="black" stroke-width="0.5"/>
<path d="M598.04 1.89L598.04 1.89"
fill="none" stroke="black" stroke-width="0.5"/>
<path d="M598.08 1.92L598.08 1.91"
fill="none" stroke="black" stroke-width="0.5"/>
<path d="M598.08 1.92L598.07 1.91"
fill="none" stroke="black" stroke-width="0.5"/>
<path d="M598.07 1.91L598.07 1.91"
fill="none" stroke="black" stroke-width="0.5"/>
<path d="M598.11 1.88L598.12 1.88M598.12 1.88L598.16 1.91"
fill="none" stroke="black" stroke-width="0.5"/>
<path d="M598.16 1.92L598.16 1.92"
fill="none" stroke="black" stroke-width="0.5"/>
<path d="M598.16 1.92L598.16 1.91"
fill="none" stroke="black" stroke-width="0.5"/>
<path d="M598.16 1.92L598.16 1.92"
fill="none" stroke="black" stroke-width="0.5"/>
<path d="M598.17 1.92L598.16 1.92"
fill="none" stroke="black" stroke-width="0.5"/>
<path d="M598.17 1.92L598.17 1.92"
fill="none" stroke="black" stroke-width="0.5"/>
<path d="M597.98 1.75L597.97 1.74"
fill="none" stroke="black" stroke-width="0.5"/>
<path d="M597.95 1.77L597.96 1.77"
fill="none" stroke="black" stroke-width="0.5"/>
<path d="M597.96 1.77L597.97 1.77"
fill="none" stroke="black" stroke-width="0.5"/>
<path d="M597.97 1.77L597.98 1.75"
fill="none" stroke="black" stroke-width="0.5"/>
<path d="M597.98 1.75L597.98 1.75"
fill="none" stroke="black" stroke-width="0.5"/>
<path d="M598.01 1.73L598 1.73"
fill="none" stroke="black" stroke-width="0.5"/>
<path d="M598 1.73L597.99 1.75"
fill="none" stroke="black" stroke-width="0.5"/>
<path d="M597.99 1.75L597.97 1.78"
fill="none" stroke="black" stroke-width="0.5"/>
<path d="M597.97 1.78L597.97 1.78"
fill="none" stroke="black" stroke-width="0.5"/>
<path d="M598.13 1.85L598.13 1.85"
fill="none" stroke="black" stroke-width="0.5"/>
<path d="M598.13 1.85L598.09 1.82"
fill="none" stroke="black" stroke-width="0.5"/>
<path d="M598.09 1.82L598.08 1.82"
fill="none" stroke="black" stroke-width="0.5"/>
<path d="M598.09 1.82L598.08 1.82"
fill="none" stroke="black" stroke-width="0.5"/>
<path d="M598.08 1.82L598.07 1.84"
fill="none" stroke="black" stroke-width="0.5"/>
<path d="M598.07 1.84L598.07 1.85"
fill="none" stroke="black" stroke-width="0.5"/>
<path d="M598.07 1.85L598.11 1.87"
fill="none" stroke="black" stroke-width="0.5"/>
<path d="M598.11 1.87L598.11 1.87"
fill="none" stroke="black" stroke-width="0.5"/>
<path d="M598.11 1.87L598.13 1.85"
fill="none" stroke="black" stroke-width="0.5"/>
<path d="M598.18 1.89L598.18 1.88"
fill="none" stroke="black" stroke-width="0.5"/>
<path d="M598.18 1.88L598.13 1.85"
fill="none" stroke="black" stroke-width="0.5"/>
<path d="M598.13 1.85L598.13 1.85"
fill="none" stroke="black" stroke-width="0.5"/>
<path d="M598.13 1.85L598.12 1.87"
fill="none" stroke="black" stroke-width="0.5"/>
<path d="M598.12 1.87L598.12 1.88"
fill="none" stroke="black" stroke-width="0.5"/>
<path d="M598.12 1.88L598.16 1.91"
fill="none" stroke="black" stroke-width="0.5"/>
<path d="M598.16 1.91L598.17 1.91"
fill="none" stroke="black" stroke-width="0.5"/>
<path d="M598.17 1.91L598.18 1.89"
fill="none" stroke="black" stroke-width="0.5"/>
<path d="M598.19 1.89L598.19 1.89"
fill="none" stroke="black" stroke-width="0.5"/>
<path d="M598.19 1.89L598.18 1.89"
fill="none" stroke="black" stroke-width="0.5"/>
<path d="M598.18 1.89L598.17 1.91"
fill="none" stroke="black" stroke-width="0.5"/>
<path d="M598.17 1.91L598.17 1.91"
fill="none" stroke="black" stroke-width="0.5"/>
<path d="M598.17 1.91L598.17 1.91"
fill="none" stroke="black" stroke-width="0.5"/>
<path d="M597.97 1.8L598 1.82"
fill="none" stroke="black" stroke-width="0.5"/>
<path d="M598 1.83L598 1.82"
fill="none" stroke="black" stroke-width="0.5"/>
<path d="M598.05 1.85L598.01 1.83"
fill="none" stroke="black" stroke-width="0.5"/>
<path d="M598.01 1.83L598.01 1.83"
fill="none" stroke="black" stroke-width="0.5"/>
<path d="M598.01 1.83L597.96 1.9"
fill="none" stroke="black" stroke-width="0.5"/>
<path d="M598.01 1.94L598.06 1.86"
fill="none" stroke="black" stroke-width="0.5"/>
<path d="M598.01 1.73L598.05 1.75"
fill="none" stroke="black" stroke-width="0.5"/>
<path d="M598.06 1.76L598.1 1.79"
fill="none" stroke="black" stroke-width="0.5"/>
<path d="M598.05 1.76L598.05 1.75"
fill="none" stroke="black" stroke-width="0.5"/>
<path d="M598.05 1.76L598.05 1.75"
fill="none" stroke="black" stroke-width="0.5"/>
<path d="M598.05 1.76L598.02 1.81"
fill="none" stroke="black" stroke-width="0.5"/>
<path d="M598.01 1.81L598.02 1.81"
fill="none" stroke="black" stroke-width="0.5"/>
<path d="M598.01 1.81L597.97 1.78"
fill="none" stroke="black" stroke-width="0.5"/>
<path d="M598.07 1.84L598.1 1.79"
fill="none" stroke="black" stroke-width="0.5"/>
<path d="M598.1 1.79L598.1 1.79"
fill="none" stroke="black" stroke-width="0.5"/>
<path d="M598.06 1.84L598.07 1.84"
fill="none" stroke="black" stroke-width="0.5"/>
<path d="M598.05 1.76L598.02 1.81"
fill="none" stroke="black" stroke-width="0.5"/>
<path d="M598.06 1.76L598.05 1.76"
fill="none" stroke="black" stroke-width="0.5"/>
<path d="M598.02 1.81L598.02 1.81"
fill="none" stroke="black" stroke-width="0.5"/>
<path d="M598.02 1.81L598.06 1.84"
fill="none" stroke="black" stroke-width="0.5"/>
<path d="M598.07 1.91L598.09 1.88"
fill="none" stroke="black" stroke-width="0.5"/>
<path d="M598.09 1.88L598.09 1.88"
fill="none" stroke="black" stroke-width="0.5"/>
<path d="M598.09 1.88L598.1 1.88"
fill="none" stroke="black" stroke-width="0.5"/>
<path d="M598.1 1.89L598.1 1.88"
fill="none" stroke="black" stroke-width="0.5"/>
<path d="M598.1 1.89L598.08 1.91"
fill="none" stroke="black" stroke-width="0.5"/>
<path d="M598.04 1.89L598.06 1.86"
fill="none" stroke="black" stroke-width="0.5"/>
<path d="M598.07 1.86L598.06 1.86"
fill="none" stroke="black" stroke-width="0.5"/>
<path d="M598.07 1.86L598.09 1.87"
fill="none" stroke="black" stroke-width="0.5"/>
<path d="M598.09 1.88L598.09 1.87"
fill="none" stroke="black" stroke-width="0.5"/>
<path d="M598.09 1.88L598.07 1.9"
fill="none" stroke="black" stroke-width="0.5"/>
<path d="M597.97 1.8L597.97 1.8"
fill="none" stroke="black" stroke-width="0.5"/>
<path d="M598.06 1.86L598.05 1.85"
fill="none" stroke="black" stroke-width="0.5"/>
<path d="M597.94 1.82L597.96 1.79"
fill="none" stroke="black" stroke-width="0.5"/>
<path d="M597.96 1.79L597.97 1.8"
fill="none" stroke="black" stroke-width="0.5"/>
<path d="M597.97 1.8L597.97 1.8"
fill="none" stroke="black" stroke-width="0.5"/>
<path d="M597.97 1.8L597.92 1.88"
fill="none" stroke="black" stroke-width="0.5"/>
<path d="M597.95 1.9L597.98 1.86"
fill="none" stroke="black" stroke-width="0.5"/>
<path d="M597.98 1.86L597.98 1.85"
fill="none" stroke="black" stroke-width="0.5"/>
<path d="M597.98 1.85L597.95 1.83"
fill="none" stroke="black" stroke-width="0.5"/>
<path d="M597.95 1.83L597.95 1.84"
fill="none" stroke="black" stroke-width="0.5"/>
<path d="M597.95 1.84L597.92 1.88"
fill="none" stroke="black" stroke-width="0.5"/>
<path d="M598 1.83L597.99 1.85"
fill="none" stroke="black" stroke-width="0.5"/>
<path d="M597.98 1.85L597.99 1.85"
fill="none" stroke="black" stroke-width="0.5"/>
<path d="M597.98 1.85L597.95 1.83"
fill="none" stroke="black" stroke-width="0.5"/>
<path d="M597.95 1.83L597.95 1.83"
fill="none" stroke="black" stroke-width="0.5"/>
<path d="M597.95 1.83L597.97 1.8"
fill="none" stroke="black" stroke-width="0.5"/>
<path d="M597.93 1.82L597.9 1.87"
fill="none" stroke="black" stroke-width="0.5"/>
<path d="M598.17 1.83L598.15 1.86"
fill="none" stroke="fuchsia" stroke-width="0.5"/>
<path d="M598.17 1.91L598.19 1.88"
fill="none" stroke="fuchsia" stroke-width="0.5"/>
<path d="M598.18 1.89L598.18 1.88"
fill="none" stroke="black" stroke-width="0.5"/>
<path d="M598.18 1.89L598.18 1.88"
fill="none" stroke="cyan" stroke-width="0.5"/>
<path d="M598.16 1.91L598.17 1.91"
fill="none" stroke="black" stroke-width="0.5"/>
<path d="M598.16 1.91L598.17 1.91"
fill="none" stroke="cyan" stroke-width="0.5"/>
<path d="M598.17 1.91L598.18 1.89"
fill="none" stroke="black" stroke-width="0.5"/>
<path d="M598.17 1.91L598.18 1.89"
fill="none" stroke="cyan" stroke-width="0.5"/>
<path d="M598.18 1.88L598.18 1.88"
fill="none" stroke="black" stroke-width="0.5"/>
<path d="M598.16 1.91L598.16 1.91"
fill="none" stroke="black" stroke-width="0.5"/>
<path d="M598.16 1.92L598.16 1.92"
fill="none" stroke="black" stroke-width="0.5"/>
<path d="M598.16 1.92L598.16 1.91"
fill="none" stroke="black" stroke-width="0.5"/>
<path d="M598.16 1.91L598.16 1.91"
fill="none" stroke="black" stroke-width="0.5"/>
<path d="M598.16 1.92L598.17 1.91"
fill="none" stroke="fuchsia" stroke-width="0.5"/>
<path d="M598.05 1.94L598.06 1.94"
fill="none" stroke="blue" stroke-width="0.5"/>
<path d="M598.06 1.93L598.07 1.94"
fill="none" stroke="blue" stroke-width="0.5"/>
<path d="M598.06 1.93L598.07 1.94"
fill="none" stroke="blue" stroke-width="0.5"/>
<path d="M598.06 1.93L598.07 1.94"
fill="none" stroke="blue" stroke-width="0.5"/>
<path d="M598.06 1.93L598.07 1.94"
fill="none" stroke="blue" stroke-width="0.5"/>
<path d="M598.06 1.93L598.07 1.93"
fill="none" stroke="blue" stroke-width="0.5"/>
<path d="M598.06 1.93L598.07 1.93"
fill="none" stroke="blue" stroke-width="0.5"/>
<path d="M598.06 1.93L598.07 1.93"
fill="none" stroke="blue" stroke-width="0.5"/>
<path d="M598.06 1.92L598.07 1.93"
fill="none" stroke="blue" stroke-width="0.5"/>
<path d="M598.06 1.92L598.07 1.93"
fill="none" stroke="blue" stroke-width="0.5"/>
<path d="M598.07 1.92L598.07 1.93"
fill="none" stroke="blue" stroke-width="0.5"/>
<path d="M598.07 1.92L598.08 1.92"
fill="none" stroke="blue" stroke-width="0.5"/>
<path d="M598.07 1.92L598.08 1.92"
fill="none" stroke="blue" stroke-width="0.5"/>
<path d="M597.93 1.86L597.92 1.86"
fill="none" stroke="blue" stroke-width="0.5"/>
<path d="M597.93 1.86L597.92 1.86"
fill="none" stroke="blue" stroke-width="0.5"/>
<path d="M597.92 1.87L597.92 1.86"
fill="none" stroke="blue" stroke-width="0.5"/>
<path d="M597.92 1.87L597.91 1.86"
fill="none" stroke="blue" stroke-width="0.5"/>
<path d="M597.92 1.87L597.91 1.87"
fill="none" stroke="blue" stroke-width="0.5"/>
<path d="M597.92 1.87L597.91 1.87"
fill="none" stroke="blue" stroke-width="0.5"/>
<path d="M597.92 1.88L597.91 1.87"
fill="none" stroke="blue" stroke-width="0.5"/>
<path d="M597.92 1.88L597.91 1.87"
fill="none" stroke="blue" stroke-width="0.5"/>
<path d="M597.93 1.85L597.92 1.85"
fill="none" stroke="blue" stroke-width="0.5"/>
<path d="M597.93 1.85L597.93 1.84"
fill="none" stroke="blue" stroke-width="0.5"/>
<path d="M597.94 1.85L597.93 1.84"
fill="none" stroke="blue" stroke-width="0.5"/>
<path d="M597.94 1.85L597.93 1.84"
fill="none" stroke="blue" stroke-width="0.5"/>
<path d="M597.94 1.85L597.93 1.84"
fill="none" stroke="blue" stroke-width="0.5"/>
<path d="M597.94 1.84L597.93 1.84"
fill="none" stroke="blue" stroke-width="0.5"/>
<path d="M597.94 1.84L597.93 1.84"
fill="none" stroke="blue" stroke-width="0.5"/>
<path d="M597.94 1.84L597.93 1.84"
fill="none" stroke="blue" stroke-width="0.5"/>
<path d="M597.94 1.84L597.93 1.83"
fill="none" stroke="blue" stroke-width="0.5"/>
<path d="M597.94 1.84L597.93 1.83"
fill="none" stroke="blue" stroke-width="0.5"/>
<path d="M597.94 1.84L597.93 1.83"
fill="none" stroke="blue" stroke-width="0.5"/>
<path d="M597.94 1.84L597.94 1.83"
fill="none" stroke="blue" stroke-width="0.5"/>
<path d="M597.95 1.83L597.94 1.83"
fill="none" stroke="blue" stroke-width="0.5"/>
<path d="M597.95 1.83L597.94 1.83"
fill="none" stroke="blue" stroke-width="0.5"/>
<path d="M597.9 1.87L597.9 1.88"
fill="none" stroke="fuchsia" stroke-width="0.5"/>
<path d="M598.04 1.96L598.03 1.97"
fill="none" stroke="fuchsia" stroke-width="0.5"/>
<path d="M597.92 1.88L597.91 1.89"
fill="none" stroke="fuchsia" stroke-width="0.5"/>
<path d="M597.95 1.82L597.94 1.82"
fill="none" stroke="blue" stroke-width="0.5"/>
<path d="M597.97 1.8L597.96 1.8"
fill="none" stroke="blue" stroke-width="0.5"/>
<path d="M597.97 1.8L597.96 1.8"
fill="none" stroke="blue" stroke-width="0.5"/>
<path d="M597.96 1.81L597.95 1.81"
fill="none" stroke="blue" stroke-width="0.5"/>
<path d="M597.96 1.81L597.96 1.8"
fill="none" stroke="blue" stroke-width="0.5"/>
<path d="M597.96 1.81L597.95 1.8"
fill="none" stroke="blue" stroke-width="0.5"/>
<path d="M597.95 1.82L597.94 1.82"
fill="none" stroke="blue" stroke-width="0.5"/>
<path d="M597.97 1.8L597.96 1.8"
fill="none" stroke="blue" stroke-width="0.5"/>
<path d="M597.96 1.82L597.95 1.81"
fill="none" stroke="blue" stroke-width="0.5"/>
<path d="M597.96 1.81L597.95 1.81"
fill="none" stroke="blue" stroke-width="0.5"/>
<path d="M597.96 1.82L597.95 1.81"
fill="none" stroke="blue" stroke-width="0.5"/>
<path d="M597.96 1.82L597.95 1.81"
fill="none" stroke="blue" stroke-width="0.5"/>
<path d="M597.96 1.81L597.95 1.8"
fill="none" stroke="blue" stroke-width="0.5"/>
<path d="M597.96 1.81L597.95 1.8"
fill="none" stroke="blue" stroke-width="0.5"/>
<path d="M597.96 1.81L597.95 1.81"
fill="none" stroke="blue" stroke-width="0.5"/>
<path d="M597.95 1.82L597.95 1.81"
fill="none" stroke="blue" stroke-width="0.5"/>
<path d="M597.93 1.85L597.93 1.85"
fill="none" stroke="blue" stroke-width="0.5"/>
<path d="M597.93 1.85L597.92 1.85"
fill="none" stroke="blue" stroke-width="0.5"/>
<path d="M598.1 1.88L598.08 1.91"
fill="none" stroke="blue" stroke-width="0.5"/>
<path d="M598.05 1.94L598.06 1.95"
fill="none" stroke="blue" stroke-width="0.5"/>
<path d="M598.05 1.94L598.06 1.94"
fill="none" stroke="blue" stroke-width="0.5"/>
<path d="M598.05 1.94L598.06 1.95"
fill="none" stroke="RGB(255,159,127)" stroke-width="0.5"/>
<path d="M598.05 1.94L598.06 1.95"
fill="none" stroke="blue" stroke-width="0.5"/>
<path d="M598.05 1.94L598.06 1.95"
fill="none" stroke="blue" stroke-width="0.5"/>
<path d="M598.05 1.95L598.06 1.95"
fill="none" stroke="blue" stroke-width="0.5"/>
<path d="M598.05 1.95L598.06 1.96"
fill="none" stroke="blue" stroke-width="0.5"/>
<path d="M598.04 1.95L598.05 1.96"
fill="none" stroke="blue" stroke-width="0.5"/>
<path d="M598.04 1.95L598.05 1.96"
fill="none" stroke="blue" stroke-width="0.5"/>
<path d="M598.04 1.95L598.05 1.96"
fill="none" stroke="blue" stroke-width="0.5"/>
<path d="M598.04 1.96L598.05 1.96"
fill="none" stroke="blue" stroke-width="0.5"/>
<path d="M597.91 1.87L597.94 1.83M597.94 1.83L597.94 1.83M597.94 1.83L597.95 1.83M597.95 1.83L597.95 1.83M597.95 1.83L597.92 1.88M597.92 1.88L597.91 1.88M597.91 1.88L597.91 1.88"
fill="none" stroke="RGB(255,159,127)" stroke-width="0.5"/>
<path d="M597.96 1.79L597.96 1.79M597.96 1.79L597.97 1.8M597.97 1.8L597.97 1.8M597.97 1.8L597.95 1.82M597.95 1.82L597.95 1.82M597.95 1.82L597.94 1.82M597.94 1.82L597.94 1.82M597.94 1.82L597.96 1.79M597.96 1.79L597.96 1.79"
fill="none" stroke="fuchsia" stroke-width="0.5"/>
<path d="M598.07 1.91L598.09 1.88"
fill="none" stroke="RGB(255,159,127)" stroke-width="0.5"/>
<path d="M598.09 1.88L598.09 1.88"
fill="none" stroke="RGB(255,159,127)" stroke-width="0.5"/>
<path d="M598.09 1.88L598.1 1.89"
fill="none" stroke="RGB(255,159,127)" stroke-width="0.5"/>
<path d="M598.1 1.89L598.1 1.89"
fill="none" stroke="RGB(255,159,127)" stroke-width="0.5"/>
<path d="M598.08 1.91L598.07 1.91"
fill="none" stroke="RGB(255,159,127)" stroke-width="0.5"/>
<path d="M597.93 1.86L597.92 1.85M597.92 1.85L597.91 1.87M597.91 1.87L597.91 1.88M597.91 1.88L597.91 1.88M597.91 1.88L597.92 1.88M597.92 1.88L597.93 1.86"
fill="none" stroke="blue" stroke-width="0.5"/>
<path d="M597.92 1.86L597.92 1.86"
fill="none" stroke="blue" stroke-width="0.5"/>
<path d="M597.94 1.83L597.93 1.85"
fill="none" stroke="blue" stroke-width="0.5"/>
<path d="M597.92 1.86L597.91 1.88"
fill="none" stroke="blue" stroke-width="0.5"/>
<path d="M598.06 1.95L598.05 1.94M598.05 1.94L598.04 1.96M598.04 1.96L598.04 1.96M598.04 1.96L598.05 1.97M598.05 1.97L598.05 1.97M598.05 1.97L598.06 1.95"
fill="none" stroke="blue" stroke-width="0.5"/>
<path d="M598.04 1.89L598.01 1.94M598.01 1.94L598.01 1.94M598.01 1.94L598.01 1.94M598.01 1.94L598.03 1.96M598.03 1.96L598.03 1.96M598.03 1.96L598.03 1.96M598.03 1.96L598.04 1.96M598.04 1.96L598.07 1.91"
fill="none" stroke="black" stroke-width="0.5"/>
<path d="M598.04 1.96L598.05 1.95"
fill="none" stroke="blue" stroke-width="0.5"/>
<path d="M598.06 1.94L598.07 1.92"
fill="none" stroke="blue" stroke-width="0.5"/>
<path d="M598.05 1.94L598.06 1.95"
fill="none" stroke="RGB(255,159,127)" stroke-width="0.5"/>
<path d="M598.11 1.88L598.05 1.97"
fill="none" stroke="fuchsia" stroke-width="0.5"/>
<path d="M598.11 1.88L598.05 1.97"
fill="none" stroke="black" stroke-width="0.5"/>
<path d="M598.05 1.97L598.05 1.97"
fill="none" stroke="black" stroke-width="0.5"/>
<path d="M598.05 1.94L598.05 1.94M598.05 1.94L598.06 1.95M598.06 1.95L598.06 1.95M598.06 1.95L598.05 1.94"
fill="none" stroke="blue" stroke-width="0.5"/>
<path d="M598.1 1.89L598.1 1.89"
fill="none" stroke="RGB(255,159,127)" stroke-width="0.5"/>
<path d="M598.1 1.89L598.09 1.88"
fill="none" stroke="RGB(255,159,127)" stroke-width="0.5"/>
<path d="M598.1 1.89L598.1 1.89"
fill="none" stroke="RGB(255,159,127)" stroke-width="0.5"/>
<path d="M598.09 1.88L598.09 1.88"
fill="none" stroke="RGB(255,159,127)" stroke-width="0.5"/>
<path d="M598.09 1.88L598.07 1.91"
fill="none" stroke="RGB(255,159,127)" stroke-width="0.5"/>
<path d="M598.07 1.91L598.07 1.91"
fill="none" stroke="RGB(255,159,127)" stroke-width="0.5"/>
<path d="M598.08 1.91L598.08 1.91"
fill="none" stroke="silver" stroke-width="0.5"/>
<path d="M598.08 1.91L598.1 1.89"
fill="none" stroke="RGB(255,159,127)" stroke-width="0.5"/>
<path d="M598.08 1.91L598.08 1.91"
fill="none" stroke="silver" stroke-width="0.5"/>
<path d="M598.1 1.89L598.1 1.89M598.1 1.89L598.09 1.88M598.09 1.88L598.09 1.88M598.09 1.88L598.07 1.91M598.07 1.91L598.07 1.91M598.07 1.91L598.08 1.91M598.08 1.91L598.08 1.91M598.08 1.91L598.1 1.89"
fill="none" stroke="fuchsia" stroke-width="0.5"/>
<path d="M597.95 1.83L597.95 1.83M597.95 1.83L597.94 1.83M597.94 1.83L597.94 1.83M597.94 1.83L597.92 1.85M597.92 1.85L597.93 1.85M597.93 1.85L597.95 1.83"
fill="none" stroke="fuchsia" stroke-width="0.5"/>
<path d="M597.95 1.82L597.94 1.82"
fill="none" stroke="blue" stroke-width="0.5"/>
<path d="M597.96 1.79L597.96 1.79"
fill="none" stroke="black" stroke-width="0.5"/>
<path d="M597.93 1.86L597.92 1.85"
fill="none" stroke="blue" stroke-width="0.5"/>
<path d="M597.95 1.82L597.95 1.82"
fill="none" stroke="blue" stroke-width="0.5"/>
<path d="M597.96 1.8L597.95 1.82"
fill="none" stroke="blue" stroke-width="0.5"/>
<path d="M598.09 2.01L598.09 2.01M598.09 2.01L598.08 2.01M598.08 2.01L598.08 2.01M598.08 2.01L598.08 2.01M598.08 2.01L598.08 2M598.08 2L598.07 2M598.07 2L598.07 2M598.07 2L598.07 2M598.07 2L598.06 1.99M598.06 1.99L598.06 1.99M598.06 1.99L598.05 1.99M598.05 1.99L598.05 1.99M598.05 1.99L598.05 1.98M598.05 1.98L598.04 1.98M598.04 1.98L598.04 1.98M598.04 1.98L598.04 1.98M598.04 1.98L598.03 1.98M598.03 1.98L598.03 1.97M598.03 1.97L598.03 1.97M598.03 1.97L598.03 1.97M598.03 1.97L598.03 1.97M598.03 1.97L598.02 1.97M598.02 1.97L598.02 1.97M598.02 1.97L598.02 1.96M598.02 1.96L598.02 1.96M598.02 1.96L598.02 1.96M598.02 1.96L598.01 1.96M598.01 1.96L598.01 1.96M598.01 1.96L598.01 1.96M598.01 1.96L598 1.95M598 1.95L598 1.95M598 1.95L598 1.95M598 1.95L598 1.95M598 1.95L598 1.95M598 1.95L597.99 1.95M597.99 1.95L597.99 1.95M597.99 1.95L597.99 1.94M597.99 1.94L597.98 1.94M597.98 1.94L597.98 1.94M597.98 1.94L597.97 1.93M597.97 1.93L597.97 1.93M597.97 1.93L597.97 1.93M597.97 1.93L597.96 1.93M597.96 1.93L597.96 1.92M597.96 1.92L597.96 1.92M597.96 1.92L597.95 1.92M597.95 1.92L597.95 1.92M597.95 1.92L597.95 1.92M597.95 1.92L597.95 1.92M597.95 1.92L597.95 1.92M597.95 1.92L597.95 1.92M597.95 1.92L597.95 1.92M597.95 1.92L597.95 1.92M597.95 1.92L597.95 1.92M597.95 1.92L597.95 1.92M597.95 1.92L597.95 1.92M597.95 1.92L597.95 1.92M597.95 1.92L597.95 1.92M597.95 1.92L597.95 1.91M597.95 1.91L597.95 1.91M597.95 1.91L597.95 1.91M597.95 1.91L597.95 1.91M597.95 1.91L597.95 1.91M597.95 1.91L597.95 1.91M597.95 1.91L597.94 1.91M597.94 1.91L597.94 1.91M597.94 1.91L597.94 1.91M597.94 1.91L597.94 1.91M597.94 1.91L597.94 1.91M597.94 1.91L597.94 1.91M597.94 1.91L597.94 1.91M597.94 1.91L597.94 1.91M597.94 1.91L597.94 1.91M597.94 1.91L597.94 1.91M597.94 1.91L597.94 1.91M597.94 1.91L597.94 1.91M597.94 1.91L597.94 1.91M597.94 1.91L597.94 1.91M597.94 1.91L597.94 1.91M597.94 1.91L597.94 1.91M597.94 1.91L597.94 1.91M597.94 1.91L597.94 1.91M597.94 1.91L597.94 1.91M597.94 1.91L597.94 1.91M597.94 1.91L597.94 1.91M597.94 1.91L597.94 1.91M597.94 1.91L597.94 1.91M597.94 1.91L597.94 1.91M597.94 1.91L597.93 1.91M597.93 1.91L597.93 1.91M597.93 1.91L597.93 1.91M597.93 1.91L597.93 1.91M597.93 1.91L597.93 1.91M597.93 1.91L597.93 1.91M597.93 1.91L597.93 1.91M597.93 1.91L597.93 1.91M597.93 1.91L597.93 1.9M597.93 1.9L597.93 1.9M597.93 1.9L597.93 1.9M597.93 1.9L597.93 1.9M597.93 1.9L597.93 1.9M597.93 1.9L597.93 1.9M597.93 1.9L597.93 1.9M597.93 1.9L597.93 1.9M597.93 1.9L597.93 1.9M597.93 1.9L597.93 1.9M597.93 1.9L597.93 1.9M597.93 1.9L597.93 1.9M597.93 1.9L597.93 1.9M597.93 1.9L597.93 1.9M597.93 1.9L597.93 1.9M597.93 1.9L597.92 1.9M597.92 1.9L597.92 1.9M597.92 1.9L597.92 1.9M597.92 1.9L597.92 1.9M597.92 1.9L597.92 1.9M597.92 1.9L597.92 1.9M597.92 1.9L597.92 1.9M597.92 1.9L597.92 1.9M597.92 1.9L597.92 1.9M597.92 1.9L597.92 1.9M597.92 1.9L597.92 1.9M597.92 1.9L597.92 1.9M597.92 1.9L597.92 1.9M597.92 1.9L597.92 1.9M597.92 1.9L597.92 1.9M597.92 1.9L597.92 1.9M597.92 1.9L597.92 1.9M597.92 1.9L597.92 1.9M597.92 1.9L597.92 1.9M597.92 1.9L597.92 1.9M597.92 1.9L597.92 1.9M597.92 1.9L597.92 1.9M597.92 1.9L597.92 1.9M597.92 1.9L597.92 1.9M597.92 1.9L597.91 1.9M597.91 1.9L597.91 1.9M597.91 1.9L597.91 1.89M597.91 1.89L597.91 1.89M597.91 1.89L597.91 1.89M597.91 1.89L597.91 1.89M597.91 1.89L597.91 1.89M597.91 1.89L597.91 1.89M597.91 1.89L597.91 1.89M597.91 1.89L597.91 1.89M597.91 1.89L597.91 1.89M597.91 1.89L597.91 1.89M597.91 1.89L597.91 1.89M597.91 1.89L597.91 1.89M597.91 1.89L597.91 1.89M597.91 1.89L597.91 1.89M597.91 1.89L597.91 1.89M597.91 1.89L597.91 1.89M597.91 1.89L597.91 1.89M597.91 1.89L597.91 1.89M597.91 1.89L597.91 1.89M597.91 1.89L597.91 1.89M597.91 1.89L597.91 1.89M597.91 1.89L597.91 1.89M597.91 1.89L597.9 1.89M597.9 1.89L597.9 1.89M597.9 1.89L597.9 1.89M597.9 1.89L597.9 1.89M597.9 1.89L597.9 1.89M597.9 1.89L597.9 1.89M597.9 1.89L597.9 1.89M597.9 1.89L597.9 1.89M597.9 1.89L597.9 1.89M597.9 1.89L597.9 1.89M597.9 1.89L597.9 1.89M597.9 1.89L597.9 1.89M597.9 1.89L597.9 1.89M597.9 1.89L597.9 1.89M597.9 1.89L597.9 1.89M597.9 1.89L597.9 1.89M597.9 1.89L597.9 1.89M597.9 1.89L597.9 1.89M597.9 1.89L597.9 1.89M597.9 1.89L597.9 1.89M597.9 1.89L597.9 1.89M597.9 1.89L597.9 1.89M597.9 1.89L597.9 1.89M597.9 1.89L597.9 1.89M597.9 1.89L597.89 1.89M597.89 1.89L597.89 1.89M597.89 1.89L597.89 1.89M597.89 1.89L597.89 1.89M597.89 1.89L597.89 1.89M597.89 1.89L597.89 1.88M597.89 1.88L597.89 1.88M597.89 1.88L597.89 1.88M597.89 1.88L597.89 1.88M597.89 1.88L597.89 1.88M597.89 1.88L597.89 1.88M597.89 1.88L597.89 1.88M597.89 1.88L597.89 1.88M597.89 1.88L597.89 1.88M597.89 1.88L597.89 1.88M597.89 1.88L597.89 1.88M597.89 1.88L597.89 1.88M597.89 1.88L597.89 1.88M597.89 1.88L597.89 1.88M597.89 1.88L597.89 1.88M597.89 1.88L597.88 1.88M597.88 1.88L597.88 1.88M597.88 1.88L597.88 1.88M597.88 1.88L597.88 1.88M597.88 1.88L597.88 1.88M597.88 1.88L597.88 1.88M597.88 1.88L597.88 1.88M597.88 1.88L597.88 1.88M597.88 1.88L597.88 1.88M597.88 1.88L597.88 1.88M597.88 1.88L597.88 1.88M597.88 1.88L597.88 1.88M597.88 1.88L597.88 1.88M597.88 1.88L597.88 1.88M597.88 1.88L597.88 1.88M597.88 1.88L597.88 1.88M597.88 1.88L597.88 1.88M597.88 1.88L597.88 1.88M597.88 1.88L597.88 1.88M597.88 1.88L597.88 1.88M597.88 1.88L597.87 1.88M597.87 1.88L597.87 1.88M597.87 1.88L597.87 1.88M597.87 1.88L597.87 1.88M597.87 1.88L597.87 1.88M597.87 1.88L597.87 1.88M597.87 1.88L597.87 1.88M597.87 1.88L597.87 1.88M597.87 1.88L597.87 1.88M597.87 1.88L597.87 1.88M597.87 1.88L597.87 1.88M597.87 1.88L597.87 1.88M597.87 1.88L597.87 1.88M597.87 1.88L597.87 1.88M597.87 1.88L597.87 1.88M597.87 1.88L597.87 1.88M597.87 1.88L597.87 1.88M597.87 1.88L597.87 1.88M597.87 1.88L597.87 1.88M597.87 1.88L597.87 1.88M597.87 1.88L597.87 1.88M597.87 1.88L597.86 1.88M597.86 1.88L597.86 1.88M597.86 1.88L597.86 1.88M597.86 1.88L597.86 1.88M597.86 1.88L597.86 1.88M597.86 1.88L597.86 1.88M597.86 1.88L597.86 1.87M597.86 1.87L597.86 1.87M597.86 1.87L597.86 1.87M597.86 1.87L597.86 1.87M597.86 1.87L597.86 1.87M597.86 1.87L597.86 1.87M597.86 1.87L597.86 1.87M597.86 1.87L597.86 1.87M597.86 1.87L597.86 1.87M597.86 1.87L597.86 1.87M597.86 1.87L597.86 1.87M597.86 1.87L597.86 1.87M597.86 1.87L597.86 1.87M597.86 1.87L597.86 1.87M597.86 1.87L597.86 1.87M597.86 1.87L597.86 1.87M597.86 1.87L597.85 1.87M597.85 1.87L597.85 1.87M597.85 1.87L597.85 1.87M597.85 1.87L597.85 1.87M597.85 1.87L597.85 1.87M597.85 1.87L597.85 1.87M597.85 1.87L597.85 1.87M597.85 1.87L597.85 1.87M597.85 1.87L597.85 1.87M597.85 1.87L597.85 1.87M597.85 1.87L597.85 1.87M597.85 1.87L597.85 1.87M597.85 1.87L597.85 1.87M597.85 1.87L597.85 1.87M597.85 1.87L597.85 1.87M597.85 1.87L597.85 1.87M597.85 1.87L597.85 1.87M597.85 1.87L597.85 1.87M597.85 1.87L597.85 1.87M597.85 1.87L597.84 1.87M597.84 1.87L597.84 1.87M597.84 1.87L597.84 1.87M597.84 1.87L597.84 1.87M597.84 1.87L597.84 1.87M597.84 1.87L597.84 1.87M597.84 1.87L597.84 1.87M597.84 1.87L597.84 1.87M597.84 1.87L597.84 1.87M597.84 1.87L597.84 1.87M597.84 1.87L597.84 1.87M597.84 1.87L597.84 1.87M597.84 1.87L597.84 1.87M597.84 1.87L597.84 1.87M597.84 1.87L597.84 1.87M597.84 1.87L597.84 1.87M597.84 1.87L597.84 1.87M597.84 1.87L597.84 1.87M597.84 1.87L597.84 1.87M597.84 1.87L597.84 1.87M597.84 1.87L597.84 1.87M597.84 1.87L597.83 1.87M597.83 1.87L597.83 1.87M597.83 1.87L597.83 1.87M597.83 1.87L597.83 1.87M597.83 1.87L597.83 1.87M597.83 1.87L597.83 1.87M597.83 1.87L597.83 1.87M597.83 1.87L597.83 1.87M597.83 1.87L597.83 1.87M597.83 1.87L597.83 1.87M597.83 1.87L597.83 1.87M597.83 1.87L597.83 1.87M597.83 1.87L597.83 1.87M597.83 1.87L597.83 1.87M597.83 1.87L597.83 1.87M597.83 1.87L597.83 1.87M597.83 1.87L597.83 1.87M597.83 1.87L597.83 1.87M597.83 1.87L597.83 1.87M597.83 1.87L597.83 1.87M597.83 1.87L597.83 1.87M597.83 1.87L597.83 1.87M597.83 1.87L597.83 1.87M597.83 1.87L597.82 1.87M597.82 1.87L597.82 1.87M597.82 1.87L597.82 1.87M597.82 1.87L597.82 1.87M597.82 1.87L597.82 1.87M597.82 1.87L597.82 1.87M597.82 1.87L597.82 1.87M597.82 1.87L597.82 1.87M597.82 1.87L597.82 1.87M597.82 1.87L597.82 1.87M597.82 1.87L597.82 1.87M597.82 1.87L597.82 1.87M597.82 1.87L597.82 1.87M597.82 1.87L597.82 1.87M597.82 1.87L597.82 1.87M597.82 1.87L597.82 1.87M597.82 1.87L597.82 1.87M597.82 1.87L597.82 1.87M597.82 1.87L597.82 1.87M597.82 1.87L597.81 1.87M597.81 1.87L597.81 1.87M597.81 1.87L597.81 1.87M597.81 1.87L597.81 1.87M597.81 1.87L597.81 1.87M597.81 1.87L597.81 1.87M597.81 1.87L597.81 1.87M597.81 1.87L597.81 1.87M597.81 1.87L597.81 1.87M597.81 1.87L597.81 1.87M597.81 1.87L597.81 1.87M597.81 1.87L597.81 1.87M597.81 1.87L597.81 1.87M597.81 1.87L597.81 1.87M597.81 1.87L597.81 1.87M597.81 1.87L597.81 1.87M597.81 1.87L597.81 1.87M597.81 1.87L597.81 1.87M597.81 1.87L597.81 1.87M597.81 1.87L597.81 1.87M597.81 1.87L597.8 1.87M597.8 1.87L597.8 1.87M597.8 1.87L597.8 1.87M597.8 1.87L597.8 1.87M597.8 1.87L597.8 1.87M597.8 1.87L597.8 1.87M597.8 1.87L597.8 1.87M597.8 1.87L597.8 1.87M597.8 1.87L597.8 1.87M597.8 1.87L597.8 1.87M597.8 1.87L597.8 1.87M597.8 1.87L597.8 1.87M597.8 1.87L597.8 1.87M597.8 1.87L597.8 1.87M597.8 1.87L597.8 1.87M597.8 1.87L597.8 1.87M597.8 1.87L597.8 1.87M597.8 1.87L597.8 1.87M597.8 1.87L597.8 1.87M597.8 1.87L597.8 1.87M597.8 1.87L597.8 1.87M597.8 1.87L597.79 1.87M597.79 1.87L597.79 1.87M597.79 1.87L597.79 1.87M597.79 1.87L597.79 1.87M597.79 1.87L597.79 1.87M597.79 1.87L597.79 1.87M597.79 1.87L597.79 1.87M597.79 1.87L597.79 1.87M597.79 1.87L597.79 1.87M597.79 1.87L597.79 1.87M597.79 1.87L597.79 1.87M597.79 1.87L597.79 1.87M597.79 1.87L597.79 1.87M597.79 1.87L597.79 1.87M597.79 1.87L597.79 1.87M597.79 1.87L597.79 1.87M597.79 1.87L597.79 1.87M597.79 1.87L597.79 1.87M597.79 1.87L597.79 1.87M597.79 1.87L597.79 1.87M597.79 1.87L597.79 1.87M597.79 1.87L597.78 1.87M597.78 1.87L597.78 1.87M597.78 1.87L597.78 1.87M597.78 1.87L597.78 1.87M597.78 1.87L597.78 1.87M597.78 1.87L597.78 1.87M597.78 1.87L597.78 1.87M597.78 1.87L597.78 1.87M597.78 1.87L597.78 1.87M597.78 1.87L597.78 1.87M597.78 1.87L597.78 1.87M597.78 1.87L597.78 1.87M597.78 1.87L597.78 1.87M597.78 1.87L597.78 1.87M597.78 1.87L597.78 1.87M597.78 1.87L597.78 1.87M597.78 1.87L597.78 1.87M597.78 1.87L597.78 1.87M597.78 1.87L597.78 1.87M597.78 1.87L597.77 1.87M597.77 1.87L597.77 1.87M597.77 1.87L597.77 1.87M597.77 1.87L597.77 1.87M597.77 1.87L597.77 1.87M597.77 1.87L597.77 1.87M597.77 1.87L597.77 1.87M597.77 1.87L597.77 1.87M597.77 1.87L597.77 1.87M597.77 1.87L597.76 1.87M597.76 1.87L597.75 1.87"
fill="none" stroke="cyan" stroke-width="0.5"/>
<path d="M597.9 1.87L597.9 1.87M597.9 1.87L597.9 1.87M597.9 1.87L597.89 1.87M597.89 1.87L597.89 1.87M597.89 1.87L597.89 1.87M597.89 1.87L597.89 1.87M597.89 1.87L597.89 1.87M597.89 1.87L597.89 1.87M597.89 1.87L597.89 1.87M597.89 1.87L597.89 1.87M597.89 1.87L597.89 1.87M597.89 1.87L597.89 1.87M597.89 1.87L597.89 1.87M597.89 1.87L597.89 1.87M597.89 1.87L597.89 1.87M597.89 1.87L597.89 1.87M597.89 1.87L597.89 1.87M597.89 1.87L597.89 1.87M597.89 1.87L597.89 1.87M597.89 1.87L597.89 1.87M597.89 1.87L597.89 1.87M597.89 1.87L597.89 1.87M597.89 1.87L597.88 1.87M597.88 1.87L597.88 1.87M597.88 1.87L597.88 1.87M597.88 1.87L597.88 1.87M597.88 1.87L597.88 1.87M597.88 1.87L597.88 1.87M597.88 1.87L597.88 1.87M597.88 1.87L597.88 1.87M597.88 1.87L597.88 1.87M597.88 1.87L597.88 1.87M597.88 1.87L597.88 1.87M597.88 1.87L597.88 1.87M597.88 1.87L597.88 1.87M597.88 1.87L597.88 1.87M597.88 1.87L597.88 1.87M597.88 1.87L597.88 1.87M597.88 1.87L597.88 1.87M597.88 1.87L597.88 1.87M597.88 1.87L597.88 1.86M597.88 1.86L597.87 1.86M597.87 1.86L597.87 1.86M597.87 1.86L597.87 1.86M597.87 1.86L597.87 1.86M597.87 1.86L597.87 1.86M597.87 1.86L597.87 1.86M597.87 1.86L597.87 1.86M597.87 1.86L597.87 1.86M597.87 1.86L597.87 1.86M597.87 1.86L597.87 1.86M597.87 1.86L597.87 1.86M597.87 1.86L597.87 1.86M597.87 1.86L597.87 1.86M597.87 1.86L597.87 1.86M597.87 1.86L597.87 1.86M597.87 1.86L597.87 1.86M597.87 1.86L597.87 1.86M597.87 1.86L597.87 1.86M597.87 1.86L597.87 1.86M597.87 1.86L597.87 1.86M597.87 1.86L597.87 1.86M597.87 1.86L597.86 1.86M597.86 1.86L597.86 1.86M597.86 1.86L597.86 1.86M597.86 1.86L597.86 1.86M597.86 1.86L597.86 1.86M597.86 1.86L597.86 1.86M597.86 1.86L597.86 1.86M597.86 1.86L597.86 1.86M597.86 1.86L597.86 1.86M597.86 1.86L597.86 1.86M597.86 1.86L597.86 1.86M597.86 1.86L597.86 1.86M597.86 1.86L597.86 1.86M597.86 1.86L597.86 1.86M597.86 1.86L597.86 1.86M597.86 1.86L597.86 1.86M597.86 1.86L597.86 1.86M597.86 1.86L597.86 1.86M597.86 1.86L597.86 1.86M597.86 1.86L597.85 1.86M597.85 1.86L597.85 1.86M597.85 1.86L597.85 1.86M597.85 1.86L597.85 1.86M597.85 1.86L597.85 1.86M597.85 1.86L597.85 1.86M597.85 1.86L597.85 1.86M597.85 1.86L597.85 1.86M597.85 1.86L597.85 1.86M597.85 1.86L597.85 1.86M597.85 1.86L597.85 1.86M597.85 1.86L597.85 1.86M597.85 1.86L597.85 1.86M597.85 1.86L597.85 1.86M597.85 1.86L597.85 1.86M597.85 1.86L597.85 1.86M597.85 1.86L597.85 1.86M597.85 1.86L597.85 1.86M597.85 1.86L597.85 1.86M597.85 1.86L597.85 1.86M597.85 1.86L597.84 1.86M597.84 1.86L597.84 1.86M597.84 1.86L597.84 1.86M597.84 1.86L597.84 1.86M597.84 1.86L597.84 1.86M597.84 1.86L597.84 1.86M597.84 1.86L597.84 1.86M597.84 1.86L597.84 1.86M597.84 1.86L597.84 1.86M597.84 1.86L597.84 1.86M597.84 1.86L597.84 1.86M597.84 1.86L597.84 1.86M597.84 1.86L597.84 1.86M597.84 1.86L597.84 1.86M597.84 1.86L597.84 1.86M597.84 1.86L597.84 1.86M597.84 1.86L597.84 1.86M597.84 1.86L597.84 1.86M597.84 1.86L597.84 1.86M597.84 1.86L597.84 1.86M597.84 1.86L597.83 1.86M597.83 1.86L597.83 1.86M597.83 1.86L597.83 1.86M597.83 1.86L597.83 1.86M597.83 1.86L597.83 1.86M597.83 1.86L597.83 1.86M597.83 1.86L597.83 1.86M597.83 1.86L597.83 1.86M597.83 1.86L597.83 1.86M597.83 1.86L597.83 1.86M597.83 1.86L597.83 1.85M597.83 1.85L597.83 1.85M597.83 1.85L597.83 1.85M597.83 1.85L597.83 1.85M597.83 1.85L597.83 1.85M597.83 1.85L597.83 1.85M597.83 1.85L597.83 1.85M597.83 1.85L597.83 1.85M597.83 1.85L597.83 1.85M597.83 1.85L597.83 1.85M597.83 1.85L597.82 1.85M597.82 1.85L597.82 1.85M597.82 1.85L597.82 1.85M597.82 1.85L597.82 1.85M597.82 1.85L597.82 1.85M597.82 1.85L597.82 1.85M597.82 1.85L597.82 1.85M597.82 1.85L597.82 1.85M597.82 1.85L597.82 1.85M597.82 1.85L597.82 1.85M597.82 1.85L597.82 1.85M597.82 1.85L597.82 1.85M597.82 1.85L597.82 1.85M597.82 1.85L597.82 1.85M597.82 1.85L597.82 1.85M597.82 1.85L597.82 1.85M597.82 1.85L597.82 1.85M597.82 1.85L597.82 1.85M597.82 1.85L597.82 1.85M597.82 1.85L597.81 1.85M597.81 1.85L597.81 1.85M597.81 1.85L597.81 1.85M597.81 1.85L597.81 1.85M597.81 1.85L597.81 1.85M597.81 1.85L597.81 1.85M597.81 1.85L597.81 1.85M597.81 1.85L597.81 1.85M597.81 1.85L597.81 1.85M597.81 1.85L597.81 1.85M597.81 1.85L597.81 1.85M597.81 1.85L597.81 1.85M597.81 1.85L597.81 1.85M597.81 1.85L597.81 1.85M597.81 1.85L597.81 1.85M597.81 1.85L597.81 1.85M597.81 1.85L597.81 1.85M597.81 1.85L597.81 1.85M597.81 1.85L597.81 1.85M597.81 1.85L597.8 1.85M597.8 1.85L597.8 1.85M597.8 1.85L597.8 1.85M597.8 1.85L597.8 1.85M597.8 1.85L597.8 1.85M597.8 1.85L597.8 1.85M597.8 1.85L597.8 1.85M597.8 1.85L597.8 1.85M597.8 1.85L597.8 1.85M597.8 1.85L597.8 1.85M597.8 1.85L597.8 1.85M597.8 1.85L597.8 1.85M597.8 1.85L597.8 1.85M597.8 1.85L597.8 1.85M597.8 1.85L597.8 1.85M597.8 1.85L597.8 1.85M597.8 1.85L597.8 1.85M597.8 1.85L597.8 1.85M597.8 1.85L597.8 1.85M597.8 1.85L597.8 1.85M597.8 1.85L597.79 1.85M597.79 1.85L597.79 1.85M597.79 1.85L597.79 1.85M597.79 1.85L597.79 1.85M597.79 1.85L597.79 1.85M597.79 1.85L597.79 1.85M597.79 1.85L597.79 1.85M597.79 1.85L597.79 1.85M597.79 1.85L597.79 1.85M597.79 1.85L597.79 1.85M597.79 1.85L597.79 1.85M597.79 1.85L597.79 1.85M597.79 1.85L597.79 1.85M597.79 1.85L597.79 1.85M597.79 1.85L597.79 1.85M597.79 1.85L597.79 1.85M597.79 1.85L597.79 1.85M597.79 1.85L597.79 1.85M597.79 1.85L597.79 1.85M597.79 1.85L597.79 1.85M597.79 1.85L597.78 1.85M597.78 1.85L597.78 1.85M597.78 1.85L597.78 1.85M597.78 1.85L597.78 1.85M597.78 1.85L597.78 1.85M597.78 1.85L597.78 1.85M597.78 1.85L597.78 1.85M597.78 1.85L597.78 1.85M597.78 1.85L597.78 1.85M597.78 1.85L597.78 1.85M597.78 1.85L597.78 1.85M597.78 1.85L597.78 1.85M597.78 1.85L597.78 1.85M597.78 1.85L597.78 1.85M597.78 1.85L597.78 1.85M597.78 1.85L597.78 1.85M597.78 1.85L597.78 1.85M597.78 1.85L597.78 1.85M597.78 1.85L597.78 1.85M597.78 1.85L597.77 1.85M597.77 1.85L597.77 1.85M597.77 1.85L597.77 1.85M597.77 1.85L597.77 1.85M597.77 1.85L597.77 1.85M597.77 1.85L597.77 1.85M597.77 1.85L597.77 1.85M597.77 1.85L597.77 1.85M597.77 1.85L597.77 1.85M597.77 1.85L597.77 1.85M597.77 1.85L597.76 1.85M597.76 1.85L597.75 1.85"
fill="none" stroke="cyan" stroke-width="0.5"/>
<path d="M598.09 2.01L598.09 2.01M598.09 2.01L598.08 2.01M598.08 2.01L598.08 2.01M598.08 2.01L598.08 2.01M598.08 2.01L598.07 2M598.07 2L598.07 2M598.07 2L598.07 2M598.07 2L598.07 2M598.07 2L598.06 1.99M598.06 1.99L598.06 1.99M598.06 1.99L598.05 1.99M598.05 1.99L598.05 1.99M598.05 1.99L598.05 1.98M598.05 1.98L598.04 1.98M598.04 1.98L598.04 1.98M598.04 1.98L598.04 1.98M598.04 1.98L598.03 1.98M598.03 1.98L598.03 1.97M598.03 1.97L598.03 1.97M598.03 1.97L598.03 1.97M598.03 1.97L598.03 1.97M598.03 1.97L598.02 1.97M598.02 1.97L598.02 1.97M598.02 1.97L598.02 1.96M598.02 1.96L598.02 1.96M598.02 1.96L598.02 1.96M598.02 1.96L598.01 1.96M598.01 1.96L598.01 1.96M598.01 1.96L598.01 1.96M598.01 1.96L598 1.95M598 1.95L598 1.95M598 1.95L598 1.95M598 1.95L598 1.95M598 1.95L598 1.95M598 1.95L597.99 1.95M597.99 1.95L597.99 1.95M597.99 1.95L597.99 1.94M597.99 1.94L597.98 1.94M597.98 1.94L597.98 1.94M597.98 1.94L597.97 1.93M597.97 1.93L597.97 1.93M597.97 1.93L597.97 1.93M597.97 1.93L597.96 1.93M597.96 1.93L597.96 1.92M597.96 1.92L597.96 1.92M597.96 1.92L597.95 1.92M597.95 1.92L597.95 1.92M597.95 1.92L597.95 1.92M597.95 1.92L597.95 1.92M597.95 1.92L597.95 1.92M597.95 1.92L597.95 1.92M597.95 1.92L597.95 1.92M597.95 1.92L597.95 1.92M597.95 1.92L597.95 1.92M597.95 1.92L597.95 1.92M597.95 1.92L597.95 1.92M597.95 1.92L597.95 1.92M597.95 1.92L597.95 1.92M597.95 1.92L597.95 1.92M597.95 1.92L597.95 1.91M597.95 1.91L597.95 1.91M597.95 1.91L597.95 1.91M597.95 1.91L597.95 1.91M597.95 1.91L597.95 1.91M597.95 1.91L597.94 1.91M597.94 1.91L597.94 1.91M597.94 1.91L597.94 1.91M597.94 1.91L597.94 1.91M597.94 1.91L597.94 1.91M597.94 1.91L597.94 1.91M597.94 1.91L597.94 1.91M597.94 1.91L597.94 1.91M597.94 1.91L597.94 1.91M597.94 1.91L597.94 1.91M597.94 1.91L597.94 1.91M597.94 1.91L597.94 1.91M597.94 1.91L597.94 1.91M597.94 1.91L597.94 1.91M597.94 1.91L597.94 1.91M597.94 1.91L597.94 1.91M597.94 1.91L597.94 1.91M597.94 1.91L597.94 1.91M597.94 1.91L597.94 1.91M597.94 1.91L597.94 1.91M597.94 1.91L597.94 1.91M597.94 1.91L597.94 1.91M597.94 1.91L597.94 1.91M597.94 1.91L597.94 1.91M597.94 1.91L597.93 1.91M597.93 1.91L597.93 1.91M597.93 1.91L597.93 1.91M597.93 1.91L597.93 1.91M597.93 1.91L597.93 1.91M597.93 1.91L597.93 1.91M597.93 1.91L597.93 1.91M597.93 1.91L597.93 1.91M597.93 1.91L597.93 1.9M597.93 1.9L597.93 1.9M597.93 1.9L597.93 1.9M597.93 1.9L597.93 1.9M597.93 1.9L597.93 1.9M597.93 1.9L597.93 1.9M597.93 1.9L597.93 1.9M597.93 1.9L597.93 1.9M597.93 1.9L597.93 1.9M597.93 1.9L597.93 1.9M597.93 1.9L597.93 1.9M597.93 1.9L597.93 1.9M597.93 1.9L597.93 1.9M597.93 1.9L597.93 1.9M597.93 1.9L597.93 1.9M597.93 1.9L597.92 1.9M597.92 1.9L597.92 1.9M597.92 1.9L597.92 1.9M597.92 1.9L597.92 1.9M597.92 1.9L597.92 1.9M597.92 1.9L597.92 1.9M597.92 1.9L597.92 1.9M597.92 1.9L597.92 1.9M597.92 1.9L597.92 1.9M597.92 1.9L597.92 1.9M597.92 1.9L597.92 1.9M597.92 1.9L597.92 1.9M597.92 1.9L597.92 1.9M597.92 1.9L597.92 1.9M597.92 1.9L597.92 1.9M597.92 1.9L597.92 1.9M597.92 1.9L597.92 1.9M597.92 1.9L597.92 1.9M597.92 1.9L597.92 1.9M597.92 1.9L597.92 1.9M597.92 1.9L597.92 1.9M597.92 1.9L597.92 1.9M597.92 1.9L597.92 1.9M597.92 1.9L597.92 1.9M597.92 1.9L597.91 1.9M597.91 1.9L597.91 1.9M597.91 1.9L597.91 1.9M597.91 1.9L597.91 1.89M597.91 1.89L597.91 1.89M597.91 1.89L597.91 1.89M597.91 1.89L597.91 1.89M597.91 1.89L597.91 1.89M597.91 1.89L597.91 1.89M597.91 1.89L597.91 1.89M597.91 1.89L597.91 1.89M597.91 1.89L597.91 1.89M597.91 1.89L597.91 1.89M597.91 1.89L597.91 1.89M597.91 1.89L597.91 1.89M597.91 1.89L597.91 1.89M597.91 1.89L597.91 1.89M597.91 1.89L597.91 1.89M597.91 1.89L597.91 1.89M597.91 1.89L597.91 1.89M597.91 1.89L597.91 1.89M597.91 1.89L597.91 1.89M597.91 1.89L597.91 1.89M597.91 1.89L597.91 1.89M597.91 1.89L597.9 1.89M597.9 1.89L597.9 1.89M597.9 1.89L597.9 1.89M597.9 1.89L597.9 1.89M597.9 1.89L597.9 1.89M597.9 1.89L597.9 1.89M597.9 1.89L597.9 1.89M597.9 1.89L597.9 1.89M597.9 1.89L597.9 1.89M597.9 1.89L597.9 1.89M597.9 1.89L597.9 1.89M597.9 1.89L597.9 1.89M597.9 1.89L597.9 1.89M597.9 1.89L597.9 1.89M597.9 1.89L597.9 1.89M597.9 1.89L597.9 1.89M597.9 1.89L597.9 1.89M597.9 1.89L597.9 1.89M597.9 1.89L597.9 1.89M597.9 1.89L597.9 1.89M597.9 1.89L597.9 1.89M597.9 1.89L597.9 1.89M597.9 1.89L597.9 1.89M597.9 1.89L597.9 1.89M597.9 1.89L597.89 1.89M597.89 1.89L597.89 1.89M597.89 1.89L597.89 1.89M597.89 1.89L597.89 1.89M597.89 1.89L597.89 1.89M597.89 1.89L597.89 1.88M597.89 1.88L597.89 1.88M597.89 1.88L597.89 1.88M597.89 1.88L597.89 1.88M597.89 1.88L597.89 1.88M597.89 1.88L597.89 1.88M597.89 1.88L597.89 1.88M597.89 1.88L597.89 1.88M597.89 1.88L597.89 1.88M597.89 1.88L597.89 1.88M597.89 1.88L597.89 1.88M597.89 1.88L597.89 1.88M597.89 1.88L597.89 1.88M597.89 1.88L597.89 1.88M597.89 1.88L597.89 1.88M597.89 1.88L597.88 1.88M597.88 1.88L597.88 1.88M597.88 1.88L597.88 1.88M597.88 1.88L597.88 1.88M597.88 1.88L597.88 1.88M597.88 1.88L597.88 1.88M597.88 1.88L597.88 1.88M597.88 1.88L597.88 1.88M597.88 1.88L597.88 1.88M597.88 1.88L597.88 1.88M597.88 1.88L597.88 1.88M597.88 1.88L597.88 1.88M597.88 1.88L597.88 1.88M597.88 1.88L597.88 1.88M597.88 1.88L597.88 1.88M597.88 1.88L597.88 1.88M597.88 1.88L597.88 1.88M597.88 1.88L597.88 1.88M597.88 1.88L597.88 1.88M597.88 1.88L597.88 1.88M597.88 1.88L597.87 1.88M597.87 1.88L597.87 1.88M597.87 1.88L597.87 1.88M597.87 1.88L597.87 1.88M597.87 1.88L597.87 1.88M597.87 1.88L597.87 1.88M597.87 1.88L597.87 1.88M597.87 1.88L597.87 1.88M597.87 1.88L597.87 1.88M597.87 1.88L597.87 1.88M597.87 1.88L597.87 1.88M597.87 1.88L597.87 1.88M597.87 1.88L597.87 1.88M597.87 1.88L597.87 1.88M597.87 1.88L597.87 1.88M597.87 1.88L597.87 1.88M597.87 1.88L597.87 1.88M597.87 1.88L597.87 1.88M597.87 1.88L597.87 1.88M597.87 1.88L597.87 1.88M597.87 1.88L597.87 1.88M597.87 1.88L597.86 1.88M597.86 1.88L597.86 1.88M597.86 1.88L597.86 1.88M597.86 1.88L597.86 1.88M597.86 1.88L597.86 1.88M597.86 1.88L597.86 1.88M597.86 1.88L597.86 1.88M597.86 1.88L597.86 1.87M597.86 1.87L597.86 1.87M597.86 1.87L597.86 1.87M597.86 1.87L597.86 1.87M597.86 1.87L597.86 1.87M597.86 1.87L597.86 1.87M597.86 1.87L597.86 1.87M597.86 1.87L597.86 1.87M597.86 1.87L597.86 1.87M597.86 1.87L597.86 1.87M597.86 1.87L597.86 1.87M597.86 1.87L597.86 1.87M597.86 1.87L597.86 1.87M597.86 1.87L597.86 1.87M597.86 1.87L597.85 1.87M597.85 1.87L597.85 1.87M597.85 1.87L597.85 1.87M597.85 1.87L597.85 1.87M597.85 1.87L597.85 1.87M597.85 1.87L597.85 1.87M597.85 1.87L597.85 1.87M597.85 1.87L597.85 1.87M597.85 1.87L597.85 1.87M597.85 1.87L597.85 1.87M597.85 1.87L597.85 1.87M597.85 1.87L597.85 1.87M597.85 1.87L597.85 1.87M597.85 1.87L597.85 1.87M597.85 1.87L597.85 1.87M597.85 1.87L597.85 1.87M597.85 1.87L597.85 1.87M597.85 1.87L597.85 1.87M597.85 1.87L597.85 1.87M597.85 1.87L597.85 1.87M597.85 1.87L597.84 1.87M597.84 1.87L597.84 1.87M597.84 1.87L597.84 1.87M597.84 1.87L597.84 1.87M597.84 1.87L597.84 1.87M597.84 1.87L597.84 1.87M597.84 1.87L597.84 1.87M597.84 1.87L597.84 1.87M597.84 1.87L597.84 1.87M597.84 1.87L597.84 1.87M597.84 1.87L597.84 1.87M597.84 1.87L597.84 1.87M597.84 1.87L597.84 1.87M597.84 1.87L597.84 1.87M597.84 1.87L597.84 1.87M597.84 1.87L597.84 1.87M597.84 1.87L597.84 1.87M597.84 1.87L597.84 1.87M597.84 1.87L597.84 1.87M597.84 1.87L597.84 1.87M597.84 1.87L597.84 1.87M597.84 1.87L597.83 1.87M597.83 1.87L597.83 1.87M597.83 1.87L597.83 1.87M597.83 1.87L597.83 1.87M597.83 1.87L597.83 1.87M597.83 1.87L597.83 1.87M597.83 1.87L597.83 1.87M597.83 1.87L597.83 1.87M597.83 1.87L597.83 1.87M597.83 1.87L597.83 1.87M597.83 1.87L597.83 1.87M597.83 1.87L597.83 1.87M597.83 1.87L597.83 1.87M597.83 1.87L597.83 1.87M597.83 1.87L597.83 1.87M597.83 1.87L597.83 1.87M597.83 1.87L597.83 1.87M597.83 1.87L597.83 1.87M597.83 1.87L597.83 1.87M597.83 1.87L597.83 1.87M597.83 1.87L597.83 1.87M597.83 1.87L597.83 1.87M597.83 1.87L597.83 1.87M597.83 1.87L597.82 1.87M597.82 1.87L597.82 1.87M597.82 1.87L597.82 1.87M597.82 1.87L597.82 1.87M597.82 1.87L597.82 1.87M597.82 1.87L597.82 1.87M597.82 1.87L597.82 1.87M597.82 1.87L597.82 1.87M597.82 1.87L597.82 1.87M597.82 1.87L597.82 1.87M597.82 1.87L597.82 1.87M597.82 1.87L597.82 1.87M597.82 1.87L597.82 1.87M597.82 1.87L597.82 1.87M597.82 1.87L597.82 1.87M597.82 1.87L597.82 1.87M597.82 1.87L597.82 1.87M597.82 1.87L597.82 1.87M597.82 1.87L597.82 1.87M597.82 1.87L597.81 1.87M597.81 1.87L597.81 1.87M597.81 1.87L597.81 1.87M597.81 1.87L597.81 1.87M597.81 1.87L597.81 1.87M597.81 1.87L597.81 1.87M597.81 1.87L597.81 1.87M597.81 1.87L597.81 1.87M597.81 1.87L597.81 1.87M597.81 1.87L597.81 1.87M597.81 1.87L597.81 1.87M597.81 1.87L597.81 1.87M597.81 1.87L597.81 1.87M597.81 1.87L597.81 1.87M597.81 1.87L597.81 1.87M597.81 1.87L597.81 1.87M597.81 1.87L597.81 1.87M597.81 1.87L597.81 1.87M597.81 1.87L597.81 1.87M597.81 1.87L597.81 1.87M597.81 1.87L597.8 1.87M597.8 1.87L597.8 1.87M597.8 1.87L597.8 1.87M597.8 1.87L597.8 1.87M597.8 1.87L597.8 1.87M597.8 1.87L597.8 1.87M597.8 1.87L597.8 1.87M597.8 1.87L597.8 1.87M597.8 1.87L597.8 1.87M597.8 1.87L597.8 1.87M597.8 1.87L597.8 1.87M597.8 1.87L597.8 1.87M597.8 1.87L597.8 1.87M597.8 1.87L597.8 1.87M597.8 1.87L597.8 1.87M597.8 1.87L597.8 1.87M597.8 1.87L597.8 1.87M597.8 1.87L597.8 1.87M597.8 1.87L597.8 1.87M597.8 1.87L597.8 1.87M597.8 1.87L597.8 1.87M597.8 1.87L597.79 1.87M597.79 1.87L597.79 1.87M597.79 1.87L597.79 1.87M597.79 1.87L597.79 1.87M597.79 1.87L597.79 1.87M597.79 1.87L597.79 1.87M597.79 1.87L597.79 1.87M597.79 1.87L597.79 1.87M597.79 1.87L597.79 1.87M597.79 1.87L597.79 1.87M597.79 1.87L597.79 1.87M597.79 1.87L597.79 1.87M597.79 1.87L597.79 1.87M597.79 1.87L597.79 1.87M597.79 1.87L597.79 1.87M597.79 1.87L597.79 1.87M597.79 1.87L597.79 1.87M597.79 1.87L597.79 1.87M597.79 1.87L597.79 1.87M597.79 1.87L597.79 1.87M597.79 1.87L597.79 1.87M597.79 1.87L597.78 1.87M597.78 1.87L597.78 1.87M597.78 1.87L597.78 1.87M597.78 1.87L597.78 1.87M597.78 1.87L597.78 1.87M597.78 1.87L597.78 1.87M597.78 1.87L597.78 1.87M597.78 1.87L597.78 1.87M597.78 1.87L597.78 1.87M597.78 1.87L597.78 1.87M597.78 1.87L597.78 1.87M597.78 1.87L597.78 1.87M597.78 1.87L597.78 1.87M597.78 1.87L597.78 1.87M597.78 1.87L597.78 1.87M597.78 1.87L597.78 1.87M597.78 1.87L597.78 1.87M597.78 1.87L597.78 1.87M597.78 1.87L597.78 1.87M597.78 1.87L597.77 1.87M597.77 1.87L597.77 1.87M597.77 1.87L597.77 1.87M597.77 1.87L597.77 1.87M597.77 1.87L597.77 1.87M597.77 1.87L597.77 1.87M597.77 1.87L597.77 1.87M597.77 1.87L597.77 1.87M597.77 1.87L597.77 1.87M597.77 1.87L597.76 1.87M597.76 1.87L597.75 1.87"
fill="none" stroke="cyan" stroke-width="0.5"/>
<path d="M597.92 1.88L597.95 1.9"
fill="none" stroke="cyan" stroke-width="0.5"/>
<path d="M597.96 1.91L598 1.94"
fill="none" stroke="cyan" stroke-width="0.5"/>
<path d="M597.92 1.88L597.92 1.88"
fill="none" stroke="cyan" stroke-width="0.5"/>
<path d="M597.95 1.9L597.95 1.9"
fill="none" stroke="cyan" stroke-width="0.5"/>
<path d="M597.96 1.9L597.96 1.91"
fill="none" stroke="cyan" stroke-width="0.5"/>
<path d="M598 1.94L598.01 1.94"
fill="none" stroke="cyan" stroke-width="0.5"/>
</svg>
